name C:/MyDriveSym/Projects/mobilecap/Data\Session20210823_0002\mocap\ForceDataProcessed\walking2_forces.mot
datacolumns 19
datarows 27
range 0.00000000 0.01300000
endheader 
time	R_ground_force_vx	R_ground_force_vy	R_ground_force_vz	R_ground_force_px	R_ground_force_py	R_ground_force_pz	R_ground_torque_x	R_ground_torque_y	R_ground_torque_z	L_ground_force_vx	L_ground_force_vy	L_ground_force_vz	L_ground_force_px	L_ground_force_py	L_ground_force_pz	L_ground_torque_x	L_ground_torque_y	L_ground_torque_z	
          0.00000000	        -42.24847900	        344.40746800	        -10.01486600	          0.29926500	          0.00600000	         -0.12948800	          0.00000000	         -0.03662900	          0.00000000	          0.00000000	          0.00000000	          0.00000000	          0.76902000	          0.00000000	         -0.19766700	          0.00000000	          0.00000000	          0.00000000	
          0.00050000	        -42.53280000	        345.60532000	        -10.04140200	          0.29926500	          0.00600000	         -0.12948800	          0.00000000	         -0.03393200	          0.00000000	          0.00000000	          0.00000000	          0.00000000	          0.76902000	          0.00000000	         -0.19766700	          0.00000000	          0.00000000	          0.00000000	
          0.00100000	        -42.81816700	        346.80999400	        -10.06812700	          0.29926500	          0.00600000	         -0.12948800	          0.00000000	         -0.03121100	          0.00000000	          0.00000000	          0.00000000	          0.00000000	          0.76902000	          0.00000000	         -0.19766700	          0.00000000	          0.00000000	          0.00000000	
          0.00150000	        -43.10455300	        348.02142400	        -10.09504100	          0.29926500	          0.00600000	         -0.12948800	          0.00000000	         -0.02846500	          0.00000000	          0.00000000	          0.00000000	          0.00000000	          0.76902000	          0.00000000	         -0.19766700	          0.00000000	          0.00000000	          0.00000000	
          0.00200000	        -43.39193100	        349.23954000	        -10.12214300	          0.29949400	          0.00600000	         -0.12950100	          0.00000000	         -0.02569500	          0.00000000	          0.00000000	          0.00000000	          0.00000000	          0.76902000	          0.00000000	         -0.19766700	          0.00000000	          0.00000000	          0.00000000	
          0.00250000	        -43.68027400	        350.46426900	        -10.14943200	          0.29972400	          0.00600000	         -0.12951400	          0.00000000	         -0.02290000	          0.00000000	          0.00000000	          0.00000000	          0.00000000	          0.76902000	          0.00000000	         -0.19766700	          0.00000000	          0.00000000	          0.00000000	
          0.00300000	        -43.96955600	        351.69553900	        -10.17690700	          0.29995400	          0.00600000	         -0.12952600	          0.00000000	         -0.02008100	          0.00000000	          0.00000000	          0.00000000	          0.00000000	          0.76902000	          0.00000000	         -0.19766700	          0.00000000	          0.00000000	          0.00000000	
          0.00350000	        -44.25974700	        352.93327400	        -10.20456900	          0.30018300	          0.00600000	         -0.12953900	          0.00000000	         -0.01723700	          0.00000000	          0.00000000	          0.00000000	          0.00000000	          0.76902000	          0.00000000	         -0.19766700	          0.00000000	          0.00000000	          0.00000000	
          0.00400000	        -44.55081900	        354.17739900	        -10.23241700	          0.30041300	          0.00600000	         -0.12955200	          0.00000000	         -0.01437000	          0.00000000	          0.00000000	          0.00000000	          0.00000000	          0.76902000	          0.00000000	         -0.19766700	          0.00000000	          0.00000000	          0.00000000	
          0.00450000	        -44.84274400	        355.42783500	        -10.26044900	          0.30064300	          0.00600000	         -0.12956400	          0.00000000	         -0.01147800	          0.00000000	          0.00000000	          0.00000000	          0.00000000	          0.76902000	          0.00000000	         -0.19766700	          0.00000000	          0.00000000	          0.00000000	
          0.00500000	        -45.13549200	        356.68450200	        -10.28866700	          0.30087200	          0.00600000	         -0.12957700	          0.00000000	         -0.00856300	          0.00000000	          0.00000000	          0.00000000	          0.00000000	          0.76902000	          0.00000000	         -0.19766700	          0.00000000	          0.00000000	          0.00000000	
          0.00550000	        -45.42903200	        357.94731900	        -10.31706800	          0.30110200	          0.00600000	         -0.12959000	          0.00000000	         -0.00562300	          0.00000000	          0.00000000	          0.00000000	          0.00000000	          0.76902000	          0.00000000	         -0.19766700	          0.00000000	          0.00000000	          0.00000000	
          0.00600000	        -45.72333600	        359.21620200	        -10.34565400	          0.30133200	          0.00600000	         -0.12960200	          0.00000000	         -0.00266000	          0.00000000	          0.00000000	          0.00000000	          0.00000000	          0.76902000	          0.00000000	         -0.19766700	          0.00000000	          0.00000000	          0.00000000	
          0.00650000	        -46.01837300	        360.49106700	        -10.37442300	          0.30156100	          0.00600000	         -0.12961400	          0.00000000	          0.00032600	          0.00000000	          0.00000000	          0.00000000	          0.00000000	          0.76902000	          0.00000000	         -0.19766700	          0.00000000	          0.00000000	          0.00000000	
          0.00700000	        -46.31411200	        361.77182800	        -10.40337600	          0.30179100	          0.00600000	         -0.12962700	          0.00000000	          0.00333600	          0.00000000	          0.00000000	          0.00000000	          0.00000000	          0.76902000	          0.00000000	         -0.19766700	          0.00000000	          0.00000000	          0.00000000	
          0.00750000	        -46.61052100	        363.05839900	        -10.43251200	          0.30202000	          0.00600000	         -0.12963900	          0.00000000	          0.00637000	          0.00000000	          0.00000000	          0.00000000	          0.00000000	          0.76902000	          0.00000000	         -0.19766700	          0.00000000	          0.00000000	          0.00000000	
          0.00800000	        -46.90756800	        364.35069000	        -10.46183100	          0.30224900	          0.00600000	         -0.12965100	          0.00000000	          0.00942600	          0.00000000	          0.00000000	          0.00000000	          0.00000000	          0.76902000	          0.00000000	         -0.19766700	          0.00000000	          0.00000000	          0.00000000	
          0.00850000	        -47.20522300	        365.64861200	        -10.49133300	          0.30247800	          0.00600000	         -0.12966300	          0.00000000	          0.01250500	          0.00000000	          0.00000000	          0.00000000	          0.00000000	          0.76902000	          0.00000000	         -0.19766700	          0.00000000	          0.00000000	          0.00000000	
          0.00900000	        -47.50345300	        366.95207400	        -10.52101700	          0.30270700	          0.00600000	         -0.12967500	          0.00000000	          0.01560600	          0.00000000	          0.00000000	          0.00000000	          0.00000000	          0.76902000	          0.00000000	         -0.19766700	          0.00000000	          0.00000000	          0.00000000	
          0.00950000	        -47.80222600	        368.26098500	        -10.55088500	          0.30293600	          0.00600000	         -0.12968700	          0.00000000	          0.01873100	          0.00000000	          0.00000000	          0.00000000	          0.00000000	          0.76902000	          0.00000000	         -0.19766700	          0.00000000	          0.00000000	          0.00000000	
          0.01000000	        -48.10150800	        369.57525200	        -10.58093500	          0.30316400	          0.00600000	         -0.12969900	          0.00000000	          0.02187700	          0.00000000	          0.00000000	          0.00000000	          0.00000000	          0.76902000	          0.00000000	         -0.19766700	          0.00000000	          0.00000000	          0.00000000	
          0.01050000	        -48.40126800	        370.89478100	        -10.61116900	          0.30339300	          0.00600000	         -0.12971000	          0.00000000	          0.02504500	          0.00000000	          0.00000000	          0.00000000	          0.00000000	          0.76902000	          0.00000000	         -0.19766700	          0.00000000	          0.00000000	          0.00000000	
          0.01100000	        -48.70147200	        372.21947800	        -10.64158600	          0.30362100	          0.00600000	         -0.12972200	          0.00000000	          0.02823500	          0.00000000	          0.00000000	          0.00000000	          0.00000000	          0.76902000	          0.00000000	         -0.19766700	          0.00000000	          0.00000000	          0.00000000	
          0.01150000	        -49.00208600	        373.54924800	        -10.67218700	          0.30384900	          0.00600000	         -0.12973400	          0.00000000	          0.03144600	          0.00000000	          0.00000000	          0.00000000	          0.00000000	          0.76902000	          0.00000000	         -0.19766700	          0.00000000	          0.00000000	          0.00000000	
          0.01200000	        -49.30307800	        374.88399500	        -10.70297200	          0.30407600	          0.00600000	         -0.12974500	          0.00000000	          0.03467900	          0.00000000	          0.00000000	          0.00000000	          0.00000000	          0.76902000	          0.00000000	         -0.19766700	          0.00000000	          0.00000000	          0.00000000	
          0.01250000	        -49.60441400	        376.22362400	        -10.73394300	          0.30430400	          0.00600000	         -0.12975600	          0.00000000	          0.03793200	          0.00000000	          0.00000000	          0.00000000	          0.00000000	          0.76902000	          0.00000000	         -0.19766700	          0.00000000	          0.00000000	          0.00000000	
          0.01300000	        -49.90606100	        377.56803800	        -10.76510100	          0.30453100	          0.00600000	         -0.12976800	          0.00000000	          0.04120600	          0.00000000	          0.00000000	          0.00000000	          0.00000000	          0.76902000	          0.00000000	         -0.19766700	          0.00000000	          0.00000000	          0.00000000	
